<svg width="14" height="14" viewBox="0 0 14 14" fill="none" xmlns="http://www.w3.org/2000/svg">
<g clip-path="url(#clip0_68_3210)">
<path d="M7 1.3125C5.481 1.3125 4.05212 1.904 2.9785 2.9785C1.90488 4.053 1.3125 5.481 1.3125 7C1.3125 8.519 1.904 9.94788 2.9785 11.0215C4.053 12.0951 5.481 12.6875 7 12.6875C8.519 12.6875 9.94788 12.096 11.0215 11.0215C12.0951 9.947 12.6875 8.519 12.6875 7C12.6875 5.481 12.096 4.05212 11.0215 2.9785C9.947 1.90488 8.519 1.3125 7 1.3125ZM7 0C8.85652 0 10.637 0.737498 11.9497 2.05025C13.2625 3.36301 14 5.14348 14 7C14 8.85652 13.2625 10.637 11.9497 11.9497C10.637 13.2625 8.85652 14 7 14C5.14348 14 3.36301 13.2625 2.05025 11.9497C0.737498 10.637 0 8.85652 0 7C0 5.14348 0.737498 3.36301 2.05025 2.05025C3.36301 0.737498 5.14348 0 7 0ZM6.125 9.625H7.875V11.375H6.125V9.625ZM6.125 2.625H7.875V7.875H6.125V2.625Z" fill="#FFEF5B"/>
</g>
<defs>
<clipPath id="clip0_68_3210">
<rect width="14" height="14" fill="white"/>
</clipPath>
</defs>
</svg>
