<svg width="36" height="39" viewBox="0 0 36 39" fill="none" xmlns="http://www.w3.org/2000/svg">
<path d="M20.6839 0.0322266L19.7874 17.1404L35.7781 11.001C34.5914 7.90901 32.5341 5.22736 29.8552 3.28063C27.1763 1.33391 23.9907 0.205578 20.6839 0.0322266ZM16.6691 3.74832C13.2188 3.84442 9.87806 4.98087 7.08469 7.00873C4.29132 9.03659 2.17566 11.8612 1.015 15.1125C-0.227949 18.5942 -0.311435 22.3847 0.777013 25.9179C1.86546 29.451 4.06744 32.5372 7.05407 34.7154C10.0407 36.8937 13.6517 38.0472 17.3477 38.0037C21.0438 37.9602 24.6266 36.7219 27.5611 34.4739C30.4956 32.2258 32.6242 29.0886 33.6291 25.5308C34.634 21.973 34.4612 18.1855 33.1366 14.734L17.1458 20.8733L18.102 3.7684C17.6249 3.74169 17.1469 3.73497 16.6692 3.74824L16.6691 3.74832Z" fill="#30B3CF"/>
</svg>
