<svg width="40" height="40" viewBox="0 0 40 40" fill="none" xmlns="http://www.w3.org/2000/svg">
<path fill-rule="evenodd" clip-rule="evenodd" d="M3.33301 20.0002C3.33301 12.1435 3.33301 8.21516 5.77301 5.7735C8.21634 3.3335 12.143 3.3335 19.9997 3.3335C27.8563 3.3335 31.7847 3.3335 34.2247 5.7735C36.6663 8.21683 36.6663 12.1435 36.6663 20.0002C36.6663 27.8568 36.6663 31.7852 34.2247 34.2252C31.7863 36.6668 27.8563 36.6668 19.9997 36.6668C12.143 36.6668 8.21468 36.6668 5.77301 34.2252C3.33301 31.7868 3.33301 27.8568 3.33301 20.0002ZM19.9997 29.5835C20.3312 29.5835 20.6491 29.4518 20.8836 29.2174C21.118 28.983 21.2497 28.665 21.2497 28.3335V19.6835L24.1163 22.5502C24.2308 22.673 24.3688 22.7715 24.5221 22.8398C24.6754 22.9081 24.841 22.9449 25.0088 22.9478C25.1766 22.9508 25.3434 22.9199 25.499 22.857C25.6547 22.7942 25.796 22.7006 25.9147 22.5819C26.0334 22.4632 26.127 22.3218 26.1899 22.1662C26.2528 22.0105 26.2836 21.8438 26.2807 21.676C26.2777 21.5081 26.241 21.3426 26.1726 21.1893C26.1043 21.0359 26.0058 20.8979 25.883 20.7835L20.883 15.7835C20.6486 15.5494 20.3309 15.4179 19.9997 15.4179C19.6684 15.4179 19.3507 15.5494 19.1163 15.7835L14.1163 20.7835C13.9935 20.8979 13.895 21.0359 13.8267 21.1893C13.7584 21.3426 13.7217 21.5081 13.7187 21.676C13.7157 21.8438 13.7466 22.0105 13.8095 22.1662C13.8723 22.3218 13.9659 22.4632 14.0846 22.5819C14.2033 22.7006 14.3447 22.7942 14.5003 22.857C14.656 22.9199 14.8227 22.9508 14.9905 22.9478C15.1584 22.9449 15.3239 22.9081 15.4772 22.8398C15.6306 22.7715 15.7686 22.673 15.883 22.5502L18.7497 19.6835V28.3335C18.7497 29.0235 19.3097 29.5835 19.9997 29.5835ZM13.333 12.9168C13.0015 12.9168 12.6835 12.7851 12.4491 12.5507C12.2147 12.3163 12.083 11.9984 12.083 11.6668C12.083 11.3353 12.2147 11.0174 12.4491 10.7829C12.6835 10.5485 13.0015 10.4168 13.333 10.4168H26.6663C26.9979 10.4168 27.3158 10.5485 27.5502 10.7829C27.7847 11.0174 27.9163 11.3353 27.9163 11.6668C27.9163 11.9984 27.7847 12.3163 27.5502 12.5507C27.3158 12.7851 26.9979 12.9168 26.6663 12.9168H13.333Z" fill="#30B3CF"/>
</svg>
