<svg width="40" height="40" viewBox="0 0 40 40" fill="none" xmlns="http://www.w3.org/2000/svg">
<path d="M22.348 4.18842C20.842 3.57782 19.1574 3.57782 17.6513 4.18842L14.0013 5.66842L29.988 11.8851L35.6114 9.71342C35.3809 9.52212 35.1223 9.36752 34.8447 9.25509L22.348 4.18842ZM36.6664 11.9851L21.2497 17.9418V29.3434L30.6547 19.9384C31.4263 19.1669 32.4107 18.6433 33.4817 18.4349C34.5528 18.2264 35.6617 18.3426 36.6664 18.7684V11.9851ZM18.7497 17.9418V34.4368L18.438 35.6818C18.407 35.8054 18.3825 35.9305 18.3647 36.0568C18.1222 35.9907 17.884 35.91 17.6513 35.8151L5.15467 30.7484C4.6164 30.5304 4.15546 30.1566 3.83092 29.675C3.50638 29.1934 3.333 28.6258 3.33301 28.0451V11.9868L18.7497 17.9418ZM4.38801 9.71342L19.9997 15.7451L26.528 13.2218L10.623 7.03842L5.15467 9.25509C4.87134 9.37009 4.61467 9.52509 4.38801 9.71342ZM31.833 21.1168L21.9947 30.9551C21.4215 31.5285 21.0148 32.2469 20.818 33.0334L20.0547 36.0851C19.9788 36.3887 19.9828 36.7068 20.0664 37.0084C20.15 37.31 20.3103 37.5848 20.5317 37.806C20.7531 38.0273 21.028 38.1874 21.3297 38.2707C21.6313 38.3541 21.9494 38.3579 22.253 38.2817L25.303 37.5201C26.0903 37.3231 26.8093 36.9158 27.383 36.3418L37.2197 26.5051C37.9159 25.787 38.3019 24.824 38.2943 23.8238C38.2866 22.8236 37.886 21.8666 37.1789 21.1592C36.4717 20.4519 35.5148 20.0509 34.5146 20.043C33.5145 20.035 32.5513 20.4207 31.833 21.1168Z" fill="#30B3CF"/>
</svg>
