<svg width="20" height="20" viewBox="0 0 20 20" fill="none" xmlns="http://www.w3.org/2000/svg">
<path d="M10.3434 14.8985L14.2809 17.3985C14.7887 17.7188 15.4137 17.2422 15.2653 16.6563L14.1246 12.1719C14.0938 12.0476 14.0987 11.9171 14.1388 11.7955C14.1789 11.6739 14.2525 11.566 14.3512 11.4844L17.8825 8.53909C18.3434 8.15628 18.109 7.38285 17.5074 7.34379L12.898 7.04689C12.7723 7.03957 12.6514 6.99577 12.5501 6.92085C12.4488 6.84593 12.3715 6.74313 12.3277 6.62502L10.609 2.29691C10.5635 2.17182 10.4806 2.06379 10.3716 1.98742C10.2626 1.91109 10.1327 1.87012 9.99963 1.87012C9.8665 1.87012 9.73665 1.91109 9.62762 1.98742C9.5186 2.06379 9.43575 2.17182 9.39027 2.29691L7.67152 6.62502C7.62773 6.74313 7.55045 6.84593 7.44913 6.92085C7.34789 6.99577 7.22696 7.03957 7.10123 7.04689L2.49185 7.34379C1.89027 7.38285 1.6559 8.15628 2.11679 8.53909L5.64806 11.4844C5.74678 11.566 5.8204 11.6739 5.86046 11.7955C5.90059 11.9171 5.90547 12.0476 5.87465 12.1719L4.81996 16.3282C4.64029 17.0313 5.39026 17.6016 5.99184 17.2188L9.65585 14.8985C9.75862 14.8331 9.87787 14.7984 9.99963 14.7984C10.1214 14.7984 10.2406 14.8331 10.3434 14.8985V14.8985Z" fill="black" fill-opacity="0.1"/>
<path fill-rule="evenodd" clip-rule="evenodd" d="M10.008 15.4259C10.008 15.4259 10.0041 15.4234 9.99957 15.4234C9.99957 15.4234 9.99502 15.4234 9.99118 15.4259L6.32613 17.7468C6.32613 17.7468 5.93626 17.9949 5.48606 17.9635C5.48606 17.9635 5.07178 17.9345 4.73462 17.6782C4.73462 17.6782 4.40168 17.4252 4.2568 17.0357C4.2568 17.0357 4.10101 16.6169 4.21434 16.1734L5.26877 12.0182C5.26877 12.0182 5.27176 12.0061 5.26682 11.9911C5.26682 11.9911 5.26188 11.9761 5.24973 11.9661L1.71643 9.01905C1.71643 9.01905 1.39679 8.75358 1.29192 8.35554C1.29192 8.35554 1.19608 7.99177 1.30876 7.62772C1.30876 7.62772 1.4227 7.25961 1.7111 7.01584C1.7111 7.01584 2.02856 6.74753 2.45125 6.72008L7.06096 6.42319C7.06096 6.42319 7.07179 6.42254 7.0774 6.41839C7.0774 6.41839 7.08301 6.41424 7.08544 6.4077L7.09056 6.39435L8.80645 2.07343C8.80645 2.07343 8.9444 1.70285 9.26905 1.47549C9.26905 1.47549 9.59798 1.24512 9.99957 1.24512C9.99957 1.24512 10.4011 1.24512 10.7301 1.47549C10.7301 1.47549 11.0547 1.70285 11.1927 2.07343L12.9086 6.39435L12.9137 6.4077C12.9137 6.4077 12.9161 6.41424 12.9217 6.41839C12.9217 6.41839 12.9273 6.42254 12.9343 6.42295L17.5475 6.72006C17.5475 6.72006 17.9706 6.74753 18.288 7.01584C18.288 7.01584 18.5764 7.25961 18.6904 7.62772C18.6904 7.62772 18.8031 7.99177 18.7072 8.35554C18.7072 8.35554 18.6023 8.75358 18.2817 9.01989L14.7515 11.9644C14.7515 11.9644 14.7372 11.9761 14.7323 11.9911C14.7323 11.9911 14.7274 12.0061 14.7312 12.0214L15.8709 16.5022C15.8709 16.5022 15.9727 16.904 15.8308 17.2834C15.8308 17.2834 15.6988 17.6365 15.3964 17.8655C15.3964 17.8655 15.0899 18.0976 14.7126 18.1235C14.7126 18.1235 14.3035 18.1517 13.9474 17.9271L10.0088 15.4264L10.0083 15.4261L10.008 15.4259ZM14.6143 16.8698L10.6788 14.3711L10.6783 14.3708C10.6783 14.3708 10.3677 14.1734 9.99957 14.1734C9.99957 14.1734 9.63125 14.1734 9.32045 14.3711L5.65737 16.6907C5.65737 16.6907 5.57231 16.7449 5.49107 16.6831C5.49107 16.6831 5.39325 16.6088 5.42542 16.4829L6.48036 12.3256C6.48036 12.3256 6.57178 11.9572 6.45402 11.5999C6.45402 11.5999 6.33625 11.2425 6.04627 11.0027L2.51708 8.05912C2.51708 8.05912 2.49056 8.03709 2.50287 7.99732C2.50287 7.99732 2.5117 7.96879 2.53225 7.96746L7.1413 7.6706C7.1413 7.6706 7.51595 7.64882 7.82078 7.42333C7.82078 7.42333 8.12229 7.20029 8.25455 6.85006L9.97106 2.52757L9.97754 2.51054C9.97754 2.51054 9.98007 2.5036 9.98612 2.49936C9.98612 2.49936 9.99217 2.49512 9.99957 2.49512C9.99957 2.49512 10.007 2.49512 10.013 2.49936C10.013 2.49936 10.0191 2.5036 10.0216 2.51054L10.0281 2.52757L11.7446 6.85005C11.7446 6.85005 11.8768 7.20029 12.1784 7.42333C12.1784 7.42333 12.4832 7.64882 12.8617 7.67084L17.4672 7.96748C17.4672 7.96748 17.4874 7.96879 17.4963 7.99732C17.4963 7.99732 17.5086 8.03709 17.4831 8.05828L13.9508 11.0044C13.9508 11.0044 13.6629 11.2425 13.5451 11.5999C13.5451 11.5999 13.4273 11.9572 13.518 12.3224L14.6595 16.8103C14.6595 16.8103 14.6691 16.8483 14.6418 16.869C14.6418 16.869 14.6286 16.8789 14.6143 16.8698Z" fill="#1C1C1C"/>
</svg>
