<svg width="20" height="20" viewBox="0 0 20 20" fill="none" xmlns="http://www.w3.org/2000/svg">
<path d="M4.39038 8.12508C4.38931 7.38415 4.53488 6.65028 4.8187 5.96584C5.10251 5.28137 5.51892 4.65984 6.04382 4.137C6.56888 3.61416 7.1922 3.20034 7.87778 2.91939C8.56351 2.63847 9.29791 2.49596 10.0389 2.50008C13.1326 2.52354 15.6091 5.09384 15.6091 8.19538V8.75008C15.6091 11.547 16.195 13.172 16.7106 14.0626C16.7654 14.1574 16.7944 14.265 16.7944 14.3745C16.7946 14.4841 16.7659 14.5917 16.7112 14.6866C16.6566 14.7816 16.578 14.8605 16.4834 14.9155C16.3887 14.9706 16.2811 14.9997 16.1717 15.0001H3.82794C3.71838 14.9997 3.61081 14.9706 3.5162 14.9155C3.42145 14.8605 3.34286 14.7816 3.28824 14.6866C3.23361 14.5917 3.20493 14.4841 3.20508 14.3745C3.20523 14.265 3.23407 14.1574 3.28885 14.0626C3.80444 13.172 4.39038 11.547 4.39038 8.75008V8.12508Z" fill="black" fill-opacity="0.1"/>
<path fill-rule="evenodd" clip-rule="evenodd" d="M3.76538 8.75007V8.12507C3.76538 8.12507 3.76362 6.87864 4.24133 5.72645C4.24133 5.72645 4.71904 4.57425 5.60285 3.69411C5.60285 3.69411 6.48666 2.81397 7.64083 2.34105C7.64083 2.34105 8.79501 1.86814 10.0423 1.87508C10.0423 1.87508 11.3106 1.88468 12.4654 2.39135C12.4654 2.39135 13.5766 2.87881 14.432 3.75745C14.432 3.75745 15.284 4.63266 15.7513 5.76121C15.7513 5.76121 16.2341 6.92735 16.2341 8.19538V8.75007C16.2341 8.75007 16.2341 11.992 17.2516 13.7494C17.2516 13.7494 17.4191 14.0396 17.4194 14.374C17.4194 14.374 17.4197 14.7083 17.2531 14.9982C17.2531 14.9982 17.0864 15.288 16.7973 15.4559C16.7973 15.4559 16.5082 15.6239 16.1738 15.6251L3.82788 15.6251C3.82788 15.6251 3.49133 15.6239 3.20222 15.4559C3.20222 15.4559 2.91311 15.288 2.74645 14.9982C2.74645 14.9982 2.57978 14.7083 2.58008 14.374C2.58008 14.374 2.58038 14.0396 2.74755 13.7501C2.74755 13.7501 3.76538 11.992 3.76538 8.75007ZM5.01538 8.75007C5.01538 8.75007 5.01538 12.3277 3.83008 14.3751L16.1694 14.3751C16.1694 14.3751 14.9841 12.3272 14.9841 8.75007V8.19538C14.9841 8.19538 14.9841 6.11659 13.5363 4.6294C13.5363 4.6294 12.0869 3.1406 10.0353 3.12506C10.0353 3.12506 9.03782 3.11951 8.11477 3.49772C8.11477 3.49772 7.19172 3.87593 6.4849 4.57982C6.4849 4.57982 5.77807 5.28372 5.39602 6.20519C5.39602 6.20519 5.01397 7.12666 5.01538 8.12507V8.75007Z" fill="#1C1C1C"/>
<path d="M13.125 15.625V15C13.125 14.6548 12.8452 14.375 12.5 14.375C12.1548 14.375 11.875 14.6548 11.875 15V15.625C11.875 16.4016 11.3258 16.9508 11.3258 16.9508C10.7766 17.5 10 17.5 10 17.5C9.22335 17.5 8.67417 16.9508 8.67417 16.9508C8.125 16.4017 8.125 15.625 8.125 15.625V15C8.125 14.6548 7.84518 14.375 7.5 14.375C7.15482 14.375 6.875 14.6548 6.875 15L6.875 15.625C6.875 16.9194 7.79029 17.8347 7.79029 17.8347C8.70558 18.75 10 18.75 10 18.75C11.2944 18.75 12.2097 17.8347 12.2097 17.8347C13.125 16.9194 13.125 15.625 13.125 15.625Z" fill="#1C1C1C"/>
</svg>
