<svg width="32" height="28" viewBox="0 0 32 28" fill="none" xmlns="http://www.w3.org/2000/svg">
<path d="M9.4093 9.32539L10.754 0.400391H3.7602L0.837895 8.05039C0.747795 8.32239 0.700195 8.60459 0.700195 8.90039C0.700195 10.7772 2.6552 12.3004 5.0709 12.3004C7.2979 12.3004 9.139 11.0016 9.4093 9.32539ZM16.0002 12.3004C18.4142 12.3004 20.3709 10.7772 20.3709 8.90039C20.3709 8.83069 20.3658 8.76099 20.3624 8.69469L19.4971 0.400391H12.5033L11.6363 8.68789C11.6323 8.75866 11.63 8.82951 11.6295 8.90039C11.6295 10.7772 13.5862 12.3004 16.0002 12.3004ZM24.5002 14.0786V20.8004H7.5002V14.0888C6.7556 14.3574 5.9362 14.5104 5.0709 14.5104C4.7394 14.5104 4.4181 14.4713 4.1002 14.4271V25.2204C4.1002 26.5294 5.1695 27.6004 6.4768 27.6004H25.5202C26.8292 27.6004 27.9002 26.5277 27.9002 25.2204V14.4288C27.5788 14.4781 27.2546 14.506 26.9295 14.5121C26.1006 14.5113 25.2783 14.3645 24.5002 14.0786ZM31.1642 8.05039L28.2385 0.400391H21.2464L22.5894 9.31179C22.8512 10.9948 24.6923 12.3004 26.9295 12.3004C29.3435 12.3004 31.3002 10.7772 31.3002 8.90039C31.3002 8.60459 31.2526 8.32239 31.1642 8.05039Z" fill="black"/>
</svg>
