<svg width="37" height="37" viewBox="0 0 37 37" fill="none" xmlns="http://www.w3.org/2000/svg">
<path d="M32.3753 9.24967H20.6741L25.7462 4.17759L24.667 3.08301L18.5003 9.24967L12.3337 3.08301L11.2391 4.17759L16.3266 9.24967H4.62533C3.80757 9.24967 3.02332 9.57452 2.44508 10.1528C1.86684 10.731 1.54199 11.5153 1.54199 12.333V30.833C1.54199 32.5288 2.92949 33.9163 4.62533 33.9163H32.3753C34.0712 33.9163 35.4587 32.5288 35.4587 30.833V12.333C35.4587 11.5153 35.1338 10.731 34.5556 10.1528C33.9773 9.57452 33.1931 9.24967 32.3753 9.24967ZM32.3753 30.833H4.62533V12.333H32.3753V30.833ZM13.8753 15.4163V27.7497L24.667 21.583L13.8753 15.4163Z" fill="black"/>
</svg>
